HIERARCHY
ROOT Hips
{
	OFFSET 0.000000 0.000000 0.000000
	CHANNELS 6 Xposition Yposition Zposition Xrotation Yrotation Zrotation
	JOINT LeftUpLeg_virtual
	{
		OFFSET 0.000000 0.000000 0.000000
		CHANNELS 3 Xrotation Yrotation Zrotation
		JOINT LeftUpLeg
		{
			OFFSET 11.394100 -6.187798 -0.413800
			CHANNELS 3 Xrotation Yrotation Zrotation
			JOINT LeftLeg
			{
				OFFSET 0.430247 -32.302673 3.732800
				CHANNELS 3 Xrotation Yrotation Zrotation
				JOINT LeftFoot
				{
					OFFSET -0.430247 -48.264931 -6.423300
					CHANNELS 3 Xrotation Yrotation Zrotation
					JOINT LeftToeBase
					{
						OFFSET 4.230900 -16.068199 23.438400
						CHANNELS 3 Xrotation Yrotation Zrotation
						JOINT LeftToe_End
						{
							OFFSET 4.510700 0.695400 19.974600
							CHANNELS 3 Xrotation Yrotation Zrotation
							End Site
							{
								OFFSET 0 0 0
							}
						}
					}
				}
			}
		}
	}
	JOINT RightUpLeg_virtual
	{
		OFFSET 0.000000 0.000000 0.000000
		CHANNELS 3 Xrotation Yrotation Zrotation
		JOINT RightUpLeg
		{
			OFFSET -11.333700 -6.187798 -0.413800
			CHANNELS 3 Xrotation Yrotation Zrotation
			JOINT RightLeg
			{
				OFFSET -0.430392 -32.302628 3.733000
				CHANNELS 3 Xrotation Yrotation Zrotation
				JOINT RightFoot
				{
					OFFSET 0.430392 -48.264973 -6.423500
					CHANNELS 3 Xrotation Yrotation Zrotation
					JOINT RightToeBase
					{
						OFFSET -4.230900 -16.068199 23.438400
						CHANNELS 3 Xrotation Yrotation Zrotation
						JOINT RightToe_End
						{
							OFFSET -4.510700 0.695400 19.974600
							CHANNELS 3 Xrotation Yrotation Zrotation
							End Site
							{
								OFFSET 0 0 0
							}
						}
					}
				}
			}
		}
	}
	JOINT Spine_virtual
	{
		OFFSET 0.000000 0.000000 0.000000
		CHANNELS 3 Xrotation Yrotation Zrotation
		JOINT Spine
		{
			OFFSET -0.002400 12.777504 0.315300
			CHANNELS 3 Xrotation Yrotation Zrotation
			JOINT Spine1
			{
				OFFSET -0.002067 5.816869 0.032633
				CHANNELS 3 Xrotation Yrotation Zrotation
				JOINT Spine1_split
				{
					OFFSET -0.002067 5.816869 0.032633
					CHANNELS 3 Xrotation Yrotation Zrotation
					JOINT Spine2
					{
						OFFSET -0.002067 5.816869 0.032633
						CHANNELS 3 Xrotation Yrotation Zrotation
						JOINT Neck_virtual
						{
							OFFSET 0.000000 0.000000 0.000000
							CHANNELS 3 Xrotation Yrotation Zrotation
							JOINT Neck
							{
								OFFSET -0.003700 21.199493 -0.826900
								CHANNELS 3 Xrotation Yrotation Zrotation
								JOINT Head
								{
									OFFSET 0.000000 20.442200 4.834800
									CHANNELS 3 Xrotation Yrotation Zrotation
									JOINT HeadTop_End
									{
										OFFSET 0.000000 34.668396 4.968400
										CHANNELS 3 Xrotation Yrotation Zrotation
										End Site
										{
											OFFSET 0 0 0
										}
									}
								}
							}
						}
						JOINT LeftShoulder_virtual
						{
							OFFSET 0.000000 0.000000 0.000000
							CHANNELS 3 Xrotation Yrotation Zrotation
							JOINT LeftShoulder
							{
								OFFSET 3.288150 8.794197 -1.372250
								CHANNELS 3 Xrotation Yrotation Zrotation
								JOINT LeftShoulder_split
								{
									OFFSET 3.288150 8.794197 -1.372250
									CHANNELS 3 Xrotation Yrotation Zrotation
									JOINT LeftArm
									{
										OFFSET 11.953299 -2.279007 -0.146200
										CHANNELS 3 Xrotation Yrotation Zrotation
										JOINT LeftForeArm
										{
											OFFSET 18.448900 0.000000 0.000000
											CHANNELS 3 Xrotation Yrotation Zrotation
											JOINT LeftHand
											{
												OFFSET 29.527798 0.000000 0.000000
												CHANNELS 3 Xrotation Yrotation Zrotation
												End Site
												{
													OFFSET 0 0 0
												}
											}
										}
									}
								}
							}
						}
						JOINT RightShoulder_virtual
						{
							OFFSET 0.000000 0.000000 0.000000
							CHANNELS 3 Xrotation Yrotation Zrotation
							JOINT RightShoulder
							{
								OFFSET -3.249400 8.794197 -1.372250
								CHANNELS 3 Xrotation Yrotation Zrotation
								JOINT RightShoulder_split
								{
									OFFSET -3.249400 8.794197 -1.372250
									CHANNELS 3 Xrotation Yrotation Zrotation
									JOINT RightArm
									{
										OFFSET -11.953299 -2.279007 -0.146200
										CHANNELS 3 Xrotation Yrotation Zrotation
										JOINT RightForeArm
										{
											OFFSET -18.448900 0.000000 0.000000
											CHANNELS 3 Xrotation Yrotation Zrotation
											JOINT RightHand
											{
												OFFSET -29.527802 0.000000 0.000000
												CHANNELS 3 Xrotation Yrotation Zrotation
												End Site
												{
													OFFSET 0 0 0
												}
											}
										}
									}
								}
							}
						}
					}
				}
			}
		}
	}
}
MOTION
Frames: 6
Frame Time: 0.03333333
14.514699 96.587402 -12.777561 0.000000 0.000000 0.000000 4.092238 -30.874600 4.097865 -17.476460 18.995721 3.693003 30.532605 11.835651 6.068636 -11.316485 15.565417 -15.273599 -0.312761 -4.028617 0.283984 0.000000 0.000000 0.000000 4.591894 -33.655033 4.302013 -20.066853 -30.526151 -13.547789 30.848741 -5.659117 -1.124774 -15.330833 -6.879040 18.217697 7.312891 3.233747 -29.788443 0.000000 0.000000 0.000000 5.311018 -30.130297 3.326220 6.277889 -8.116445 -1.371580 1.539772 -4.565754 -0.970683 0.077298 -0.492160 -0.001334 0.000000 0.000000 0.000000 1.878134 -3.316689 -0.286895 -7.609627 12.788280 5.095224 -1.561120 40.762668 16.683118 0.000000 0.000000 0.000000 1.147667 -4.594209 -0.486518 -0.022943 2.171088 5.231496 -0.436842 -3.833807 -1.649645 11.042610 19.364817 -65.148305 5.310326 -50.170929 -0.159733 0.000000 0.000000 0.000000 1.745636 -5.102406 -0.813264 0.830306 -11.941117 -6.156198 -5.481440 3.706511 0.480572 -3.814855 3.259121 77.236804 5.921495 46.660673 -0.386855 0.000000 0.000000 0.000000 
13.973122 96.673897 -13.363041 0.000000 0.000000 0.000000 3.808136 -34.068598 4.199973 -16.405735 19.912930 3.917596 30.905520 13.393467 5.815626 -11.263977 16.782489 -16.471163 -1.537342 -4.088150 -0.346106 0.000000 0.000000 0.000000 4.355256 -36.856903 4.457184 -18.767347 -30.490634 -13.356642 30.326047 -6.346189 -1.313053 -15.642498 -8.179625 18.678532 8.250406 3.133795 -30.300785 0.000000 0.000000 0.000000 4.987679 -33.483346 3.549523 6.049364 -8.027660 -1.484758 1.766025 -4.443669 -0.879948 0.085825 -0.518036 0.017873 0.000000 0.000000 0.000000 1.883924 -3.251732 -0.125127 -7.793379 13.383929 5.498435 -1.856116 41.442921 17.143570 0.000000 0.000000 0.000000 1.134331 -4.462880 -0.384416 -0.176479 2.013319 6.275719 -0.202656 -4.347690 -1.562047 10.877395 19.196829 -64.984039 5.454445 -50.100370 0.100190 0.000000 0.000000 0.000000 1.756640 -5.054186 -0.757193 0.701849 -11.397053 -6.182120 -5.932074 3.439382 0.285178 -4.341514 2.116448 76.963664 6.331826 45.772530 -0.580443 0.000000 0.000000 0.000000 
13.275520 96.783279 -14.065765 0.000000 0.000000 0.000000 3.364092 -36.807814 3.951465 -16.367403 20.570112 4.966385 32.230594 14.678039 5.199228 -10.184881 17.330195 -17.481031 -3.593337 -4.095232 -1.147067 0.000000 0.000000 0.000000 3.862833 -39.394291 4.214018 -18.163264 -29.955926 -13.089862 29.988461 -6.601386 -1.429264 -14.948817 -9.035018 19.367223 8.049993 3.207169 -30.383017 0.000000 0.000000 0.000000 4.625428 -36.292115 3.511189 5.880208 -7.684059 -1.456960 2.079830 -4.283785 -0.772575 0.094661 -0.514393 0.044356 0.000000 0.000000 0.000000 1.977463 -3.131684 0.051238 -8.140447 13.886172 5.818459 -2.104352 41.682660 17.475044 0.000000 0.000000 0.000000 1.184370 -4.300967 -0.286990 -0.366606 1.815853 7.101004 -0.156987 -4.686662 -1.522820 10.624818 18.768631 -64.740447 5.081037 -49.816384 -0.060874 0.000000 0.000000 0.000000 1.805267 -4.945580 -0.659631 0.614913 -10.905031 -6.020134 -6.289121 3.086952 0.041159 -4.844610 1.082748 76.287619 5.963813 44.636365 -0.188053 0.000000 0.000000 0.000000 
12.488765 96.962784 -14.694595 0.000000 0.000000 0.000000 2.826947 -39.065281 3.432218 -17.439300 20.880537 6.739525 34.205758 15.619917 4.332614 -8.203485 17.075405 -17.854786 -6.462800 -4.034221 -2.158763 0.000000 0.000000 0.000000 3.246779 -41.371043 3.684694 -17.923385 -29.096647 -12.684687 29.557845 -6.453500 -1.543562 -13.904443 -9.475554 20.201500 6.979054 3.388713 -30.026137 0.000000 0.000000 0.000000 4.232680 -38.620659 3.273306 5.759553 -7.101714 -1.325235 2.450827 -4.070466 -0.655736 0.113574 -0.508673 0.054499 0.000000 0.000000 0.000000 2.136131 -2.942679 0.243476 -8.566380 14.261071 6.052798 -2.172549 41.509098 17.622045 0.000000 0.000000 0.000000 1.277607 -4.105047 -0.203518 -0.573099 1.559222 7.687211 -0.285633 -4.862609 -1.467867 10.302884 18.011631 -64.413820 4.290798 -49.337052 -0.551360 0.000000 0.000000 0.000000 1.879034 -4.759566 -0.511660 0.567202 -10.493223 -5.685915 -6.551303 2.837770 -0.181424 -5.261145 0.143910 75.246917 4.950344 43.182297 0.669747 0.000000 0.000000 0.000000 
11.640483 97.198608 -15.185612 0.000000 0.000000 0.000000 2.213093 -40.886875 2.737836 -19.324133 20.651506 8.861250 36.329568 16.124279 3.368770 -5.850581 16.070301 -17.236360 -9.524556 -3.862062 -3.535021 0.000000 0.000000 0.000000 2.701456 -42.994439 3.063476 -17.532768 -28.165356 -11.963457 29.010532 -6.309641 -1.604884 -13.325365 -9.868341 20.168015 6.365036 3.373249 -29.090848 0.000000 0.000000 0.000000 3.769976 -40.524305 2.870852 5.661758 -6.320460 -1.150222 2.826812 -3.797246 -0.531743 0.142802 -0.513910 0.060469 0.000000 0.000000 0.000000 2.307676 -2.687187 0.448006 -8.993344 14.477604 6.248976 -1.987670 40.994307 17.487234 0.000000 0.000000 0.000000 1.375003 -3.873244 -0.130646 -0.789139 1.249763 8.060558 -0.483800 -4.890836 -1.443799 9.974459 16.867770 -64.068861 3.285615 -48.759211 -1.187670 0.000000 0.000000 0.000000 1.973107 -4.495796 -0.311556 0.561033 -10.222862 -5.212818 -6.765985 2.732196 -0.347553 -5.474849 -0.745564 73.930473 3.503610 41.469408 1.792606 0.000000 0.000000 0.000000 
10.758346 97.449982 -15.532951 0.000000 0.000000 0.000000 1.656901 -42.382055 2.041397 -21.798026 19.891271 11.009586 38.205005 15.967710 2.442347 -3.588764 14.367404 -15.763752 -11.991839 -3.548104 -5.199349 0.000000 0.000000 0.000000 2.235000 -44.429790 2.466625 -16.870627 -27.259374 -10.972070 28.280117 -6.359202 -1.567684 -13.480755 -10.413487 18.961235 7.129778 3.000478 -27.604013 0.000000 0.000000 0.000000 3.219116 -42.132951 2.391166 5.590970 -5.406287 -0.947760 3.169180 -3.475171 -0.394945 0.155781 -0.537138 0.076469 0.000000 0.000000 0.000000 2.437021 -2.371536 0.659319 -9.330498 14.543035 6.471181 -1.517782 40.252190 16.984157 0.000000 0.000000 0.000000 1.426961 -3.604767 -0.058067 -1.002700 0.879830 8.251935 -0.714385 -4.737272 -1.393480 9.731682 15.404814 -63.809103 2.280792 -48.221436 -1.797463 0.000000 0.000000 0.000000 2.061240 -4.155691 -0.071863 0.592862 -10.143673 -4.681376 -6.873803 2.868627 -0.513101 -5.455465 -1.691587 72.396119 1.820489 39.693832 3.003194 0.000000 0.000000 0.000000 
